<?xml version="1.0" standalone="no"?>
<!DOCTYPE svg PUBLIC "-//W3C//DTD SVG 20010904//EN"
 "http://www.w3.org/TR/2001/REC-SVG-20010904/DTD/svg10.dtd">
<svg version="1.0" xmlns="http://www.w3.org/2000/svg"
 width="600.000000pt" height="600.000000pt" viewBox="0 0 600.000000 600.000000"
 preserveAspectRatio="xMidYMid meet">
<metadata>
Created by potrace 1.11, written by Peter Selinger 2001-2013
</metadata>
<g transform="translate(0.000000,600.000000) scale(0.100000,-0.100000)"
fill="#000000" stroke="none">
<path d="M3196 5899 c-6 -17 -29 -175 -56 -379 -11 -85 -27 -177 -35 -204 -8
-27 -15 -67 -15 -89 0 -34 -2 -39 -20 -34 -18 5 -20 0 -20 -49 0 -41 -5 -59
-20 -74 -16 -16 -20 -33 -20 -84 0 -59 -2 -65 -22 -68 -36 -5 -45 -78 -21
-162 5 -17 1 -18 -37 -12 l-42 6 6 -65 c3 -36 9 -95 12 -131 l6 -66 -41 7 -41
7 1 -44 c0 -23 8 -73 18 -110 l17 -68 -33 0 c-19 0 -36 -6 -38 -12 -3 -7 2
-38 10 -68 31 -109 32 -103 -4 -95 -30 6 -31 6 -31 -28 0 -29 18 -93 45 -160
7 -16 3 -17 -34 -11 l-42 7 7 -44 c9 -61 32 -154 51 -201 8 -21 14 -41 12 -43
-2 -2 -23 0 -47 5 l-43 8 6 -32 c4 -17 20 -71 37 -121 16 -49 30 -94 31 -99 1
-5 -11 -10 -28 -10 -27 -1 -30 -4 -27 -30 3 -25 46 -159 67 -208 6 -15 2 -18
-29 -18 -46 0 -46 -11 0 -137 20 -54 38 -105 41 -114 3 -12 -4 -18 -26 -22
-24 -5 -31 -12 -31 -30 0 -27 49 -178 74 -224 16 -32 16 -32 -12 -35 -24 -3
-27 -7 -24 -37 1 -18 23 -85 47 -148 25 -63 45 -116 45 -117 0 -2 -11 -1 -25
2 -35 6 -33 -6 21 -153 35 -95 43 -129 35 -139 -14 -16 -5 -66 43 -249 20 -73
38 -168 41 -212 l5 -80 -34 70 c-48 95 -108 264 -152 420 -41 149 -49 166 -69
159 -17 -7 -14 -16 -55 161 -18 77 -34 143 -37 148 -2 4 -17 -2 -33 -13 -32
-23 -32 -23 -44 52 -8 46 -75 260 -85 271 -4 4 -19 -2 -34 -13 l-26 -21 -5 23
c-3 13 -8 41 -11 63 -9 56 -64 225 -73 225 -5 0 -13 -5 -20 -12 -17 -17 -22
-8 -42 86 -11 47 -24 95 -30 107 -11 19 -13 19 -29 5 -26 -23 -41 -20 -41 9 0
38 -30 179 -41 189 -5 6 -20 1 -39 -12 -22 -17 -31 -19 -35 -10 -2 7 -13 47
-24 88 -30 115 -49 153 -69 145 -45 -19 -51 -17 -57 11 -13 58 -17 69 -27 97
-12 32 -24 34 -54 6 l-22 -20 -6 48 c-9 63 -37 162 -47 168 -4 3 -20 -5 -35
-19 l-28 -24 -17 67 c-18 70 -66 181 -77 181 -4 0 -16 -7 -26 -15 -27 -21 -36
-19 -36 8 0 26 -43 121 -59 132 -7 4 -19 1 -27 -6 -21 -17 -34 0 -68 88 -15
40 -33 76 -38 80 -6 3 -19 -3 -28 -15 -18 -22 -30 -19 -30 7 -1 34 -67 145
-96 161 -16 9 -43 42 -61 74 -18 31 -47 76 -66 99 -18 23 -64 87 -102 142
-100 146 -167 236 -172 231 -3 -2 12 -42 33 -88 106 -239 167 -419 145 -426
-16 -5 -14 -16 20 -100 30 -76 30 -76 10 -92 l-21 -15 24 -50 c12 -27 35 -64
49 -81 33 -39 33 -40 2 -48 -14 -4 -25 -12 -25 -20 0 -15 48 -83 79 -110 28
-25 27 -44 -4 -52 -14 -3 -25 -8 -25 -11 0 -12 27 -54 72 -112 49 -62 51 -76
14 -83 -37 -6 -27 -29 49 -107 42 -43 73 -81 68 -84 -4 -2 -20 -7 -35 -11 -16
-3 -28 -13 -28 -22 0 -8 46 -62 102 -120 55 -57 96 -104 89 -104 -6 0 -28 -7
-48 -15 l-36 -15 29 -31 c16 -17 58 -52 93 -77 l64 -46 -27 -21 c-18 -14 -25
-27 -20 -38 7 -19 109 -107 155 -134 32 -19 37 -31 14 -38 -50 -16 -48 -13
-29 -44 10 -17 48 -54 86 -83 37 -29 68 -56 68 -60 0 -3 -14 -11 -31 -17 -25
-9 -28 -13 -20 -29 13 -25 99 -104 149 -137 49 -32 52 -42 15 -56 l-26 -10 39
-40 c21 -22 69 -61 107 -86 63 -44 81 -63 57 -63 -5 0 -10 -10 -10 -21 0 -24
43 -67 148 -147 52 -39 69 -58 60 -63 -22 -14 10 -57 105 -137 48 -40 101 -94
118 -118 17 -25 103 -118 192 -207 129 -129 173 -180 214 -250 29 -48 46 -84
38 -80 -46 26 -211 184 -292 280 -52 62 -101 113 -109 113 -7 0 -17 -7 -21
-15 -7 -11 -24 7 -71 73 -34 48 -76 103 -92 122 l-30 35 -20 -23 -19 -23 -12
23 c-20 37 -131 178 -140 178 -5 0 -15 -11 -21 -25 -6 -14 -14 -25 -17 -25 -3
0 -17 18 -30 40 -14 22 -51 68 -83 102 l-58 63 -20 -23 -20 -24 -80 84 -80 83
-23 -28 -24 -28 -17 26 c-23 34 -146 165 -157 165 -4 0 -13 -15 -20 -33 l-11
-32 -105 105 -105 105 -16 -35 c-9 -19 -17 -37 -19 -39 -1 -2 -30 22 -65 54
-35 31 -75 66 -90 77 l-28 19 -12 -25 c-11 -25 -28 -35 -28 -18 0 5 -29 32
-65 61 -61 50 -85 57 -85 25 0 -21 -5 -18 -79 29 -80 53 -101 62 -101 42 0
-21 -10 -19 -91 20 -41 19 -82 35 -93 35 -10 0 -92 29 -180 64 -170 68 -242
90 -272 84 -13 -2 14 -24 82 -65 141 -87 263 -179 274 -207 8 -23 66 -74 123
-110 15 -9 25 -21 22 -26 -12 -19 16 -48 85 -89 73 -44 81 -54 53 -69 -30 -17
9 -57 92 -97 68 -32 74 -37 63 -54 -19 -31 12 -64 96 -101 72 -32 75 -35 60
-52 -14 -15 -15 -20 -3 -35 17 -20 164 -91 208 -99 36 -8 38 -14 11 -39 -41
-37 13 -77 130 -97 57 -10 69 -15 64 -28 -15 -37 -14 -47 10 -69 16 -15 58
-33 108 -46 76 -20 83 -24 86 -49 4 -35 35 -54 129 -78 96 -24 111 -32 115
-60 4 -31 36 -44 153 -63 144 -23 142 -22 175 -55 17 -17 36 -30 43 -30 18 0
417 -124 497 -154 l65 -25 -185 0 c-147 0 -186 -3 -195 -14 -8 -11 -29 -13
-90 -9 -98 5 -150 -6 -150 -34 0 -17 -10 -20 -80 -26 -107 -9 -130 -18 -130
-53 0 -25 -5 -29 -55 -42 -76 -19 -116 -44 -113 -71 2 -17 -10 -29 -52 -53
-38 -21 -60 -41 -69 -63 -9 -21 -58 -66 -146 -136 -203 -159 -234 -190 -196
-190 7 0 81 25 164 55 90 33 183 60 229 66 43 6 107 22 142 36 52 21 65 23 72
12 5 -8 9 -17 9 -21 0 -17 43 -7 98 22 52 27 61 29 89 18 29 -11 40 -8 119 26
68 30 94 36 121 31 28 -5 53 3 134 41 74 34 103 44 112 35 25 -25 79 -3 307
129 67 38 128 70 135 70 40 0 28 -343 -26 -716 -20 -141 -18 -174 6 -174 17 0
20 9 44 165 29 186 40 293 55 528 15 243 15 242 104 241 44 0 107 -17 272 -72
276 -92 382 -120 503 -133 54 -5 121 -19 148 -29 58 -23 85 -24 118 -6 20 11
33 11 80 0 31 -7 77 -13 103 -14 42 0 47 3 56 29 l10 29 105 4 c85 2 109 7
125 22 12 10 45 21 79 26 32 4 75 15 95 24 31 13 75 16 249 16 156 0 210 3
207 12 -6 18 -143 84 -238 115 -47 15 -98 35 -115 44 -16 10 -68 24 -114 31
-65 10 -85 17 -89 30 -4 15 -16 18 -69 18 -56 0 -66 3 -70 20 -6 23 -6 23 -97
20 l-69 -2 7 26 c6 23 4 26 -21 26 -16 0 -54 -6 -85 -14 -53 -12 -57 -12 -61
5 -7 26 -64 24 -154 -5 -19 -6 -23 -4 -23 13 0 16 -6 21 -25 21 -21 0 -138
-34 -187 -55 -14 -5 -18 -2 -18 12 0 11 -2 22 -5 25 -8 7 -152 -20 -190 -37
-27 -11 -33 -10 -41 2 -8 13 -34 9 -188 -31 -98 -26 -181 -45 -183 -42 -8 8
67 42 343 156 169 69 283 122 311 144 24 19 89 53 144 76 54 23 99 46 99 51 0
18 52 42 140 64 125 32 162 59 128 93 -19 19 6 36 118 77 56 20 112 46 124 57
19 18 20 21 6 37 -9 10 -16 20 -16 24 0 3 38 17 83 31 46 14 96 35 110 47 30
23 36 66 12 75 -18 7 -20 24 -2 24 19 0 139 59 175 87 32 24 33 26 17 49 -15
23 -14 25 8 33 61 24 117 54 138 77 24 25 24 26 4 40 -23 17 -24 16 67 65 77
42 96 64 79 91 -7 11 -11 21 -9 23 2 1 36 19 76 40 73 38 84 53 57 75 -13 11
-7 18 45 52 33 22 70 53 82 70 49 65 146 162 235 236 85 69 106 92 86 92 -5 0
-80 -31 -168 -69 -88 -38 -186 -76 -217 -86 -31 -9 -73 -27 -92 -40 -27 -19
-36 -21 -36 -10 0 8 -7 15 -15 15 -22 0 -107 -44 -143 -74 -36 -31 -52 -33
-52 -7 0 11 -4 22 -9 25 -10 6 -91 -46 -162 -106 l-47 -38 -16 25 c-9 14 -21
25 -26 25 -16 0 -164 -136 -179 -164 -19 -34 -28 -33 -45 8 -8 18 -18 36 -24
40 -11 7 -90 -76 -130 -137 -13 -20 -28 -37 -32 -37 -5 0 -13 14 -19 30 -5 17
-14 30 -20 30 -15 0 -101 -100 -123 -143 l-19 -39 -24 22 c-13 12 -28 19 -34
16 -5 -4 -40 -50 -77 -103 -60 -85 -68 -94 -80 -79 -7 10 -20 16 -30 14 -15
-2 -63 -66 -110 -144 -10 -16 -13 -17 -28 -5 -9 8 -18 12 -20 10 -33 -39 -109
-155 -117 -178 -9 -27 -13 -29 -31 -18 -17 11 -24 7 -58 -32 -34 -40 -133
-194 -143 -224 -3 -9 -8 -9 -19 0 -18 15 -27 7 -91 -85 -54 -77 -228 -273
-276 -309 l-35 -27 24 39 c95 156 332 467 434 567 103 102 126 137 100 151
-14 8 -5 21 58 86 117 119 139 155 101 164 -14 3 0 21 59 78 42 41 84 87 93
102 17 27 17 28 -1 42 -18 13 -13 19 74 108 50 52 92 99 92 104 0 5 -5 14 -12
21 -9 9 5 29 60 86 40 41 72 81 72 90 0 9 -12 21 -27 27 l-28 10 48 42 c48 42
87 93 87 113 0 7 -10 14 -22 17 -19 5 -15 12 45 77 37 39 67 77 67 85 0 9 -11
20 -25 27 l-24 11 52 59 c64 73 97 119 97 134 0 7 -13 15 -30 19 -16 4 -30 9
-30 12 0 3 24 33 53 67 97 112 111 146 58 146 -42 0 -47 15 -18 59 35 53 85
153 87 176 4 38 0 45 -30 45 l-29 0 40 84 c23 47 42 100 42 118 2 29 -1 33
-20 31 -30 -3 -29 5 7 87 34 78 36 86 15 98 -14 7 -13 14 6 56 16 36 19 59 15
90 -8 50 28 199 99 409 26 77 44 141 42 144 -8 7 -53 -57 -85 -122 -17 -33
-69 -125 -116 -204 -47 -79 -86 -148 -86 -152 0 -4 -10 -9 -22 -11 -25 -3 -57
-57 -58 -96 0 -19 -4 -21 -25 -16 -22 5 -27 1 -45 -37 -11 -24 -20 -56 -20
-71 0 -30 -17 -36 -39 -15 -17 17 -38 -12 -46 -66 -11 -73 -14 -78 -35 -65
-14 9 -22 9 -34 -1 -18 -15 -46 -101 -46 -139 0 -20 -4 -23 -20 -18 -11 3 -29
9 -39 12 -17 5 -22 -2 -36 -48 -8 -29 -18 -79 -22 -110 -3 -32 -9 -58 -12 -58
-4 0 -17 7 -30 16 -19 14 -25 14 -31 3 -10 -15 -30 -124 -30 -162 0 -34 -17
-43 -40 -22 -10 9 -23 14 -29 11 -13 -8 -31 -96 -31 -151 0 -50 -1 -51 -35
-29 -13 9 -29 13 -34 10 -10 -6 -34 -108 -48 -204 l-8 -53 -34 25 c-19 14 -37
23 -41 21 -7 -4 -23 -100 -35 -207 l-6 -58 -31 16 c-40 21 -42 16 -57 -108
-16 -127 -16 -128 -50 -122 -37 8 -41 -4 -48 -134 -3 -56 -10 -105 -14 -108
-5 -2 -17 1 -28 8 -11 7 -22 10 -25 7 -3 -2 -10 -65 -17 -139 -6 -74 -13 -137
-16 -140 -2 -2 -13 1 -23 8 -32 20 -37 15 -45 -43 -6 -53 -25 -78 -25 -34 0
18 -4 20 -25 15 -14 -4 -25 -3 -25 2 0 5 16 45 35 89 40 93 45 140 16 145 -18
3 -16 10 19 93 56 130 58 143 26 151 -14 3 -26 8 -26 11 0 3 16 47 35 99 19
51 35 109 35 129 0 32 -2 35 -30 35 -16 0 -30 2 -30 4 0 2 16 37 35 78 38 84
56 150 45 168 -5 8 -18 10 -39 5 l-32 -7 17 39 c37 86 52 130 59 176 4 26 6
47 4 47 -2 0 -18 -4 -36 -9 -17 -5 -34 -7 -36 -4 -3 2 8 32 24 66 35 77 65
187 56 211 -6 14 -14 16 -38 11 -28 -6 -31 -5 -24 11 29 74 55 163 53 184 -3
23 -7 25 -42 22 -34 -3 -38 -2 -32 15 31 79 48 223 27 223 -5 0 -22 -5 -37
-10 -24 -10 -26 -9 -21 12 27 117 37 167 37 191 0 25 -3 27 -40 27 -39 0 -39
0 -29 28 6 15 13 68 16 118 l6 92 -25 -5 -26 -5 6 90 c4 85 4 89 -17 95 -19 5
-21 12 -21 91 0 78 -2 86 -19 86 -16 0 -20 10 -24 73 -3 39 -10 103 -16 140
-6 37 -15 170 -21 294 -9 214 -13 254 -24 222z m198 -3689 c-5 -48 -10 -60
-24 -60 -10 0 -20 -7 -24 -15 -7 -20 -26 -19 -26 1 0 8 14 49 31 91 37 88 54
81 43 -17z m-89 -312 c-4 -24 -13 -58 -21 -75 -14 -35 -34 -44 -34 -17 0 18
50 134 57 134 3 0 2 -19 -2 -42z"/>
</g>
</svg>
